<?xml version="1.0" encoding="UTF-8" standalone="no"?>
<!DOCTYPE svg PUBLIC "-//W3C//DTD SVG 1.1//EN" "http://www.w3.org/Graphics/SVG/1.1/DTD/svg11.dtd">
<svg width="100%" height="100%" viewBox="0 0 1080 1080" version="1.1" xmlns="http://www.w3.org/2000/svg" xmlns:xlink="http://www.w3.org/1999/xlink" xml:space="preserve" xmlns:serif="http://www.serif.com/" style="fill-rule:evenodd;clip-rule:evenodd;stroke-linejoin:round;stroke-miterlimit:2;">
    <rect id="Artboard1" x="0" y="0" width="1080" height="1080" style="fill:rgb(102,102,102);"/>
    <g id="Artboard11" serif:id="Artboard1">
        <g id="Joystick-Base" serif:id="Joystick Base" transform="matrix(1.41216,0,0,1.41216,-58.7832,-144.802)">
            <g transform="matrix(1,0,0,1,-24.2892,72.8675)">
                <circle cx="332.705" cy="358.206" r="119.277" style="fill:rgb(207,0,0);"/>
            </g>
            <g transform="matrix(1,0,0,1,206.458,72.8675)">
                <circle cx="332.705" cy="358.206" r="119.277" style="fill:rgb(207,0,0);"/>
            </g>
            <g transform="matrix(1,0,0,1.01489,206.918,69.3087)">
                <path d="M346.03,252.057C411.86,252.057 442.184,281.554 457.053,356.455C470.698,425.189 496.494,550.519 433.082,574.636C327.668,614.727 213.428,424.037 213.428,358.206C213.428,292.375 280.199,252.057 346.03,252.057Z" style="fill:rgb(207,0,0);"/>
            </g>
            <g transform="matrix(-1,0,0,1.01489,641.121,69.3087)">
                <path d="M346.03,252.057C411.86,252.057 442.184,281.554 457.053,356.455C470.698,425.189 496.494,550.519 433.082,574.636C327.668,614.727 213.428,424.037 213.428,358.206C213.428,292.375 280.199,252.057 346.03,252.057Z" style="fill:rgb(207,0,0);"/>
            </g>
            <g transform="matrix(0.844261,0,0,1.29611,51.4558,-107.542)">
                <rect x="304.361" y="323.535" width="274.304" height="184.054" style="fill:rgb(207,0,0);"/>
            </g>
        </g>
        <g transform="matrix(1.55371,0,0,1.55371,-644.524,122.066)">
            <path d="M639.669,249.485L629.682,249.485L629.838,243.087C625.105,248.392 618.629,251.045 610.411,251.045C604.481,251.045 599.241,249.797 594.689,247.3C590.138,244.803 586.614,241.279 584.117,236.728C581.621,232.177 580.372,226.936 580.372,221.007C580.372,215.077 581.673,209.836 584.273,205.285C586.874,200.734 590.45,197.21 595.001,194.713C599.553,192.216 604.689,190.968 610.411,190.968C617.173,190.968 623.128,192.672 628.278,196.079C633.427,199.486 636.964,204.232 638.889,210.318L628.746,214.219C627.394,210.214 625.17,207.002 622.075,204.583C618.98,202.164 615.092,200.955 610.411,200.955C606.458,200.955 602.999,201.826 600.034,203.569C597.069,205.311 594.793,207.704 593.207,210.747C591.62,213.79 590.827,217.21 590.827,221.007C590.827,224.856 591.62,228.302 593.207,231.345C594.793,234.387 597.069,236.767 600.034,238.484C602.999,240.2 606.458,241.058 610.411,241.058C614.624,241.058 618.408,240.083 621.763,238.132C625.118,236.182 627.524,233.308 628.98,229.511L612.205,229.511L612.205,219.524L639.669,219.524L639.669,249.485Z" style="fill:white;fill-rule:nonzero;"/>
            <path d="M652.153,191.748C662.452,191.748 669.266,191.774 672.594,191.826C679.148,191.93 684.779,193.166 689.486,195.532C694.194,197.899 697.796,201.215 700.292,205.48C702.789,209.745 704.037,214.791 704.037,220.617C704.037,226.442 702.802,231.488 700.331,235.753C697.861,240.018 694.324,243.334 689.72,245.701C685.117,248.067 679.668,249.303 673.375,249.407C670.046,249.459 662.972,249.485 652.153,249.485L650.592,249.485L650.592,191.748L652.153,191.748ZM660.579,239.186C666.925,239.186 671.086,239.16 673.063,239.108C679.2,238.952 684.181,237.365 688.004,234.348C691.827,231.332 693.738,226.754 693.738,220.617C693.738,214.427 691.827,209.81 688.004,206.768C684.181,203.725 679.174,202.125 672.985,201.969C671.112,201.917 666.977,201.891 660.579,201.891L660.579,239.186Z" style="fill:white;fill-rule:nonzero;"/>
            <path d="M758.029,238.952C756.572,242.801 753.894,245.779 749.992,247.885C746.091,249.992 741.696,251.045 736.807,251.045C731.969,251.045 727.782,250.031 724.245,248.002C720.708,245.974 718.016,243.204 716.17,239.693C714.323,236.182 713.4,232.294 713.4,228.029C713.4,223.503 714.414,219.498 716.443,216.013C718.471,212.528 721.267,209.823 724.83,207.899C728.393,205.974 732.385,205.012 736.807,205.012C740.5,205.012 743.998,205.727 747.301,207.158C750.604,208.588 753.36,210.942 755.571,214.219C757.782,217.496 759.043,221.735 759.355,226.936L759.433,232.242L723.699,232.242C724.427,235.207 725.936,237.573 728.224,239.342C730.513,241.11 733.374,241.995 736.807,241.995C739.563,241.995 742.034,241.422 744.219,240.278C746.403,239.134 747.834,237.651 748.51,235.831L758.029,238.952ZM748.432,223.659C748.224,220.434 747.002,218.029 744.765,216.442C742.528,214.856 739.876,214.063 736.807,214.063C733.582,214.063 730.799,214.921 728.458,216.637C726.118,218.354 724.531,220.695 723.699,223.659L748.432,223.659Z" style="fill:white;fill-rule:nonzero;"/>
            <path d="M771.761,218.666C771.761,214.245 773.399,210.864 776.676,208.523C779.953,206.182 784.738,205.012 791.032,205.012C798.366,205.012 804.842,206.573 810.46,209.693L806.012,218.666C802.319,215.961 797.326,214.609 791.032,214.609C787.755,214.609 785.388,214.973 783.932,215.701C782.476,216.429 781.747,217.47 781.747,218.822C781.747,220.539 782.736,221.761 784.712,222.489C786.689,223.217 789.42,223.711 792.905,223.971C798.626,224.44 803.191,225.753 806.597,227.912C810.004,230.07 811.708,233.282 811.708,237.547C811.708,241.761 809.939,245.063 806.402,247.456C802.865,249.849 797.508,251.045 790.33,251.045C781.175,251.045 773.737,249.251 768.016,245.662L772.697,236.299C775.61,238.172 778.562,239.511 781.552,240.317C784.543,241.123 787.729,241.526 791.11,241.526C794.907,241.526 797.664,241.136 799.38,240.356C801.097,239.576 801.955,238.536 801.955,237.235C801.955,235.831 801.019,234.791 799.146,234.114C797.274,233.438 794.309,232.892 790.252,232.476C784.062,231.852 779.433,230.486 776.364,228.38C773.295,226.273 771.761,223.035 771.761,218.666Z" style="fill:white;fill-rule:nonzero;"/>
            <path d="M833.398,249.485L823.567,249.485L823.567,206.573L833.398,206.573L833.398,249.485ZM828.483,200.175C826.454,200.175 824.933,199.681 823.918,198.692C822.904,197.704 822.397,196.274 822.397,194.401C822.397,192.529 822.904,191.098 823.918,190.11C824.933,189.122 826.454,188.627 828.483,188.627C830.511,188.627 832.033,189.122 833.047,190.11C834.061,191.098 834.568,192.529 834.568,194.401C834.568,196.274 834.061,197.704 833.047,198.692C832.033,199.681 830.511,200.175 828.483,200.175Z" style="fill:white;fill-rule:nonzero;"/>
            <path d="M867.494,234.661C864.425,234.661 861.668,234.192 859.223,233.256C859.327,235.285 860.199,236.793 861.837,237.781C863.476,238.77 865.751,239.394 868.664,239.654C874.438,240.122 879.353,241.591 883.41,244.062C887.467,246.533 889.496,249.953 889.496,254.322C889.496,256.819 888.755,259.185 887.272,261.422C885.79,263.659 883.41,265.479 880.133,266.884C876.856,268.288 872.617,268.99 867.416,268.99C862.214,268.99 857.962,268.249 854.659,266.767C851.356,265.284 848.964,263.36 847.481,260.993C845.999,258.626 845.257,256.091 845.257,253.386C845.257,250.629 845.947,248.145 847.325,245.935C848.703,243.724 850.433,241.891 852.514,240.434C851.109,238.614 850.407,236.637 850.407,234.504C850.407,233.62 850.537,232.619 850.797,231.501C851.057,230.382 851.421,229.303 851.889,228.263C849.809,225.766 848.768,222.827 848.768,219.446C848.768,216.377 849.601,213.699 851.265,211.41C852.93,209.121 855.192,207.353 858.053,206.104C860.914,204.856 864.061,204.232 867.494,204.232C869.626,204.232 871.655,204.466 873.579,204.934C874.88,203.686 876.388,202.736 878.105,202.086C879.821,201.436 881.616,201.111 883.488,201.111C886.453,201.111 889.444,201.813 892.461,203.218L888.95,210.474C887.025,209.589 885.101,209.147 883.176,209.147L881.772,209.225C884.737,212.034 886.219,215.441 886.219,219.446C886.219,222.359 885.426,224.973 883.839,227.287C882.253,229.602 880.029,231.41 877.169,232.71C874.308,234.01 871.083,234.661 867.494,234.661ZM867.494,226.858C870.042,226.858 872.305,226.182 874.282,224.83C876.258,223.477 877.247,221.683 877.247,219.446C877.247,217.21 876.258,215.415 874.282,214.063C872.305,212.71 870.042,212.034 867.494,212.034C864.945,212.034 862.682,212.71 860.706,214.063C858.729,215.415 857.741,217.21 857.741,219.446C857.741,221.683 858.729,223.477 860.706,224.83C862.682,226.182 864.945,226.858 867.494,226.858ZM880.055,253.932C880.055,252.111 878.885,250.551 876.544,249.251C874.204,247.95 871.057,247.17 867.104,246.91C863.827,246.65 861.018,246 858.677,244.959C857.273,246.104 856.246,247.365 855.595,248.744C854.945,250.122 854.62,251.409 854.62,252.606C854.62,254.894 855.738,256.767 857.975,258.223C860.212,259.68 863.359,260.408 867.416,260.408C871.213,260.408 874.269,259.784 876.583,258.535C878.898,257.287 880.055,255.752 880.055,253.932Z" style="fill:white;fill-rule:nonzero;"/>
            <path d="M909.782,211.488C913.059,207.171 917.948,205.012 924.45,205.012C930.848,205.012 935.763,207.041 939.196,211.098C942.629,215.155 944.45,220.799 944.658,228.029C944.71,229.901 944.736,233.724 944.736,239.498L944.736,249.485L934.983,249.485L934.983,239.498C934.983,233.724 934.957,229.901 934.905,228.029C934.801,223.971 933.826,220.682 931.979,218.159C930.133,215.636 927.363,214.375 923.67,214.375C921.329,214.375 919.131,214.895 917.077,215.935C915.022,216.975 913.358,218.536 912.083,220.617C910.809,222.697 910.172,225.168 910.172,228.029L910.094,239.498L910.094,249.485L900.263,249.485L900.263,206.573L909.782,206.573L909.782,211.488Z" style="fill:white;fill-rule:nonzero;"/>
        </g>
    </g>
</svg>
